<svg width="80" height="80" viewBox="0 0 80 80" fill="none" xmlns="http://www.w3.org/2000/svg">
<g clip-path="url(#clip0_10_106)">
<path d="M20.7812 0.15624C14.4844 0.656241 8.57812 2.14062 5.09375 4.14062C2.64062 5.53124 1.39062 6.71874 0.5625 8.43749L0.078125 9.45312V40V70.5469L0.5625 71.5625C2.45312 75.5469 9 78.5 18.4375 79.6406C21.6094 80.0156 29.0156 80.0156 32.1875 79.6406C41.5937 78.5 48.1719 75.5469 50.1094 71.6094L50.5469 70.7031L50.5937 66.6719L50.6406 62.6562H54.0781C57.7969 62.6562 58.3437 62.7656 58.5156 63.4844C58.5469 63.6719 58.6094 65.8594 58.625 68.3594C58.6719 72.5781 58.6875 72.9375 59 73.5937C59.4062 74.4531 60.1875 75.25 61.0156 75.6406C61.5781 75.8906 62.0781 75.9375 65.5469 75.9375H69.4531L69.8281 76.8125C70.3125 77.9219 71.3437 78.9687 72.4687 79.5C73.6562 80.0625 75.6094 80.0937 76.75 79.5781C77.7812 79.1094 78.9844 77.9375 79.4844 76.8906C80.0781 75.7031 80.1094 73.7656 79.5625 72.5937C79.0312 71.4219 78.25 70.5781 77.1562 69.9844C76.2344 69.4844 76.0781 69.4531 74.6875 69.4531C73.4219 69.4531 73.0781 69.5156 72.4219 69.8437C71.3906 70.3437 70.2969 71.4531 69.8437 72.4687L69.4687 73.2812H65.7812H62.0781L61.7031 72.875L61.3281 72.4687L61.25 67.6094L61.1719 62.7344L60.7344 62C60.5 61.5937 60.0781 61.0781 59.7969 60.875C58.7656 60.0781 58.2187 60 54.2812 60H50.625V50.7031V41.4062H60.0469H69.4687L69.8125 42.1562C70.3125 43.2656 71.0937 44.0937 72.2187 44.7031C73.125 45.2031 73.2969 45.2344 74.6094 45.2344C75.7969 45.2344 76.1562 45.1719 76.8906 44.8281C78.0156 44.2969 78.9844 43.3281 79.5156 42.2031C79.8594 41.4687 79.9219 41.1094 79.9219 40C79.9219 38.8594 79.8594 38.5469 79.4844 37.7812C78.9219 36.625 77.9844 35.6875 76.9062 35.1875C76.1562 34.8281 75.7969 34.7656 74.6875 34.7656C73.5 34.7656 73.2344 34.8281 72.3125 35.2812C71.125 35.8594 70.5 36.5 69.8437 37.8281L69.375 38.75L60.0312 38.7187L50.7031 38.6719L50.6562 31.9844L50.625 25.3125H54.4062C57.8906 25.3125 58.2656 25.2812 58.9062 24.9844C59.8437 24.5625 60.4375 23.9844 60.875 23.0469L61.25 22.2656V15.8437C61.25 11.5469 61.3125 9.24999 61.4219 8.92187C61.7344 8.04687 62.0937 7.96874 65.9844 7.96874H69.4687L69.8281 8.82812C71.1875 12.1094 75.5312 13.0312 78.1875 10.6094C79.4531 9.45312 79.9219 8.40624 79.9219 6.71874C79.9219 5.53124 79.875 5.28124 79.4062 4.34374C78.5156 2.51562 77.0312 1.56249 74.9219 1.43749C73.8906 1.39062 73.5 1.43749 72.7344 1.73437C71.5625 2.17187 70.1875 3.48437 69.7656 4.56249L69.4844 5.31249H66C64.0781 5.31249 62.1562 5.39062 61.7187 5.48437C60.6719 5.70312 59.7656 6.42187 59.1562 7.49999L58.6719 8.35937L58.5937 15.2031L58.5156 22.0625L58.1406 22.3594C57.8125 22.625 57.4844 22.6562 54.2031 22.6562H50.6406L50.5937 15.9687L50.5469 9.29687L50.1094 8.40624C48.4375 4.99999 42.8594 2.10937 35.5469 0.874991C31.4062 0.171865 24.8125 -0.15626 20.7812 0.15624ZM29.2187 2.81249C39.7812 3.56249 47.9687 7.01562 47.9687 10.7187C47.9687 11.6094 47.2031 12.8281 46.125 13.6719C43.1875 15.9844 38.125 17.5937 31.3281 18.375C26.7656 18.8906 20.0312 18.6562 15.3906 17.8125C8.875 16.625 3.95312 14.2187 2.89062 11.6562C2.5625 10.8594 2.59375 10.3281 3.0625 9.39062C5.20312 5.09374 17.5312 1.99999 29.2187 2.81249ZM75.9687 4.40624C77.9844 5.54687 77.625 8.48437 75.375 9.21874C73.3437 9.89062 71.4219 7.73437 72.2031 5.67187C72.75 4.23437 74.5625 3.62499 75.9687 4.40624ZM5.79687 17.5937C13.7187 21.5781 28.0469 22.5156 38.9062 19.7656C41.9844 18.9844 45 17.7031 47 16.3125L47.9687 15.6406V23.4531C47.9687 30.4062 47.9375 31.3281 47.7187 31.7656C47.25 32.6562 46.6875 33.2969 45.7187 33.9844C43.3281 35.6719 39.75 36.9844 35.2344 37.8125C29.375 38.8906 21.2656 38.8906 15.4531 37.8281C8.84375 36.6094 3.95312 34.2187 2.89062 31.6562C2.6875 31.1875 2.65625 29.8594 2.65625 23.3594V15.625L3.70312 16.3437C4.26562 16.7344 5.21875 17.2969 5.79687 17.5937ZM5.82812 37.6094C10.6719 40.0312 17.2344 41.2812 25.3125 41.2812C34.7187 41.2812 42.375 39.5156 47 36.3125L47.9687 35.6406V42.75C47.9687 50.6094 48 50.3906 46.9375 51.5625C42.8906 56.0312 29.2344 58.4531 17.4219 56.7969C10.0625 55.75 4.42187 53.3281 3.0625 50.5937L2.65625 49.7812V42.7031V35.625L3.70312 36.3437C4.26562 36.7344 5.23437 37.2969 5.82812 37.6094ZM75.6719 37.5625C77.2812 38.25 77.8125 40.375 76.6719 41.6719C75.4844 43.0156 73.4844 42.9531 72.4687 41.5312C71.9531 40.7812 71.9531 39.2031 72.4844 38.4531C73.1562 37.5 74.5937 37.0937 75.6719 37.5625ZM3.84375 55.1094C8.10937 57.9844 15.2187 59.7187 23.6719 59.9531C33.2969 60.2031 42.1406 58.3437 46.8125 55.0937C47.375 54.6875 47.8594 54.375 47.8906 54.375C47.9375 54.375 47.9687 57.875 47.9687 62.1406C47.9687 71.0469 48.0312 70.5937 46.5 71.9844C43.8594 74.375 38.6719 76.1406 31.875 76.9687C28.7344 77.3594 21.9062 77.3594 18.7812 76.9844C10.625 75.9844 4.5 73.5 3.0625 70.5937L2.65625 69.7812V62.0781C2.65625 57.8437 2.6875 54.375 2.71875 54.375C2.75 54.375 3.25 54.7031 3.84375 55.1094ZM75.7656 72.25C77.5781 73.1875 77.7969 75.5625 76.1875 76.7969C75.0625 77.6562 73.2969 77.375 72.4687 76.2187C72.0625 75.6406 71.9219 74.4687 72.1719 73.7187C72.625 72.3594 74.5 71.6094 75.7656 72.25Z" fill="white"/>
<path d="M73.2812 6.64062V7.96875H74.6094H75.9375V6.64062V5.3125H74.6094H73.2812V6.64062Z" fill="white"/>
<path d="M73.3125 40.0312L73.3594 41.3281L74.6562 41.375L75.9375 41.4219V40.0781V38.75H74.6094H73.2656L73.3125 40.0312Z" fill="white"/>
<path d="M73.2812 74.6094V75.9375H74.6094H75.9375V74.6094V73.2812H74.6094H73.2812V74.6094Z" fill="white"/>
</g>
<defs>
<clipPath id="clip0_10_106">
<rect width="80" height="80" fill="white"/>
</clipPath>
</defs>
</svg>
