<svg width="67" height="261" viewBox="0 0 67 261" fill="none" xmlns="http://www.w3.org/2000/svg">
<path d="M30.7018 26.89V31.21L15.7318 25.87V21.73L30.7018 16.39V20.71L20.0818 23.8L30.7018 26.89ZM40.9579 27.46H38.6179V34H33.9979V13.78H40.9579C43.1979 13.78 45.0079 14.41 46.3879 15.67C47.7879 16.93 48.4879 18.53 48.4879 20.47C48.4879 22.69 47.7579 24.41 46.2979 25.63C44.8579 26.85 43.0779 27.46 40.9579 27.46ZM40.4179 17.47H38.6179V23.8H40.1479C42.5879 23.8 43.8079 22.69 43.8079 20.47C43.8079 18.47 42.6779 17.47 40.4179 17.47ZM65.2721 25.87L50.3021 31.21V26.89L60.9221 23.8L50.3021 20.71V16.39L65.2721 21.73V25.87Z" fill="#9A8862"/>
<path d="M16.7438 242.89V247.21L1.77383 241.87V237.73L16.7438 232.39V236.71L6.12383 239.8L16.7438 242.89ZM22.5598 253.09H18.0298L28.7998 228.79H33.3598L22.5598 253.09ZM40.9159 243.46H38.5759V250H33.9559V229.78H40.9159C43.1559 229.78 44.9659 230.41 46.3459 231.67C47.7459 232.93 48.4459 234.53 48.4459 236.47C48.4459 238.69 47.7159 240.41 46.2559 241.63C44.8159 242.85 43.0359 243.46 40.9159 243.46ZM40.3759 233.47H38.5759V239.8H40.1059C42.5459 239.8 43.7659 238.69 43.7659 236.47C43.7659 234.47 42.6359 233.47 40.3759 233.47ZM65.2302 241.87L50.2602 247.21V242.89L60.8802 239.8L50.2602 236.71V232.39L65.2302 237.73V241.87Z" fill="#9A8862"/>
<line x1="42.5" y1="45" x2="42.5" y2="216" stroke="#9A8862" stroke-width="3"/>
</svg>
