<svg width="80" height="80" viewBox="0 0 80 80" fill="none" xmlns="http://www.w3.org/2000/svg">
<circle cx="40" cy="40" r="40" fill="#C362F9"/>
<path fill-rule="evenodd" clip-rule="evenodd" d="M40.0542 21.1665C28.5771 21.1665 19.275 30.4686 19.275 41.9457C19.275 51.1248 25.2271 58.9144 33.4854 61.6644C34.525 61.8519 34.9 61.2123 34.9 60.6623C34.9 60.1686 34.8834 58.8603 34.8771 57.129C29.0959 58.3832 27.875 54.3415 27.875 54.3415C26.9334 51.9415 25.5688 51.3019 25.5688 51.3019C23.6834 50.0123 25.7125 50.0415 25.7125 50.0415C27.8 50.1873 28.8938 52.1832 28.8938 52.1832C30.7479 55.3582 33.7604 54.4415 34.9396 53.9103C35.1292 52.5665 35.6709 51.6498 36.2625 51.1311C31.65 50.6082 26.8 48.8248 26.8 40.8603C26.8 38.5957 27.6104 36.7373 28.9334 35.2873C28.7229 34.7603 28.0042 32.6457 29.1396 29.7873C29.1396 29.7873 30.8834 29.2269 34.8521 31.9144C36.5471 31.4533 38.2955 31.218 40.0521 31.2144C41.8087 31.2173 43.5573 31.4526 45.2521 31.9144C49.2229 29.2248 50.9646 29.7873 50.9646 29.7873C52.1 32.6457 51.3875 34.7603 51.1709 35.2873C52.5042 36.7373 53.3042 38.5936 53.3042 40.8603C53.3042 48.8457 48.45 50.5998 43.8209 51.1144C44.5604 51.7561 45.2271 53.0228 45.2271 54.9603C45.2271 57.7394 45.2021 59.9811 45.2021 60.6623C45.2021 61.2186 45.5729 61.8644 46.6334 61.6603C54.8875 58.9061 60.8334 51.1228 60.8334 41.9457C60.8334 30.4686 51.5313 21.1665 40.0542 21.1665Z" fill="white"/>
</svg>
