<svg width="80" height="80" viewBox="0 0 80 80" fill="none" xmlns="http://www.w3.org/2000/svg">
<g clip-path="url(#clip0_10_87)">
<path d="M4.14062 0.21875C2.46874 0.75 1.23437 1.82812 0.499992 3.40625L0.0781173 4.29688L0.0312423 32.0156C-0.0156327 62.5938 -0.0625076 60.7812 0.953117 62.375C1.53124 63.2656 2.10937 63.7812 3.18749 64.3438L3.98437 64.7656L17.1875 64.8438L30.3906 64.9219L30.4375 71.2812L30.4687 77.6562H27.9844C25.7969 77.6562 25.4687 77.6875 25.1406 77.9531C24.6406 78.3594 24.6406 79.2969 25.1406 79.7031C25.4844 79.9844 26.0625 80 40 80C53.9375 80 54.5156 79.9844 54.8594 79.7031C55.3594 79.2969 55.3594 78.3594 54.8594 77.9531C54.5312 77.6875 54.2031 77.6562 52.0156 77.6562H49.5312V75.3906C49.5312 73.3281 49.5 73.0938 49.2187 72.8125C48.8281 72.4219 48.1094 72.4062 47.6406 72.7969C47.2812 73.0781 47.2656 73.2031 47.2187 75.375L47.1719 77.6562H39.9844H32.8125V71.25V64.8438H40H47.1875V66.625C47.1875 68.1719 47.2344 68.4531 47.5156 68.8125C47.875 69.2812 48.6406 69.3594 49.1562 69C49.4062 68.8125 49.4687 68.5156 49.5312 66.8438L49.6094 64.9219L62.8125 64.8438L76.0156 64.7656L76.7187 64.3906C77.7969 63.8281 78.5156 63.2031 79.0469 62.375C80.0625 60.7812 80.0156 62.5938 79.9687 32.0156L79.9219 4.29688L79.5 3.40625C78.9219 2.15625 77.8594 1.07812 76.6719 0.53125L75.7031 0.078125L40.2344 0.046875C11.8906 0.03125 4.64062 0.0625 4.14062 0.21875ZM75.7187 2.64062C76.5 3 77.25 3.89062 77.4844 4.75C77.625 5.21875 77.6562 11.5156 77.625 27.8906L77.5781 50.3906H40H2.42187L2.37499 27.8906C2.34374 11.5156 2.37499 5.21875 2.51562 4.75C2.74999 3.89062 3.49999 3 4.28124 2.64062C4.90624 2.35938 6.21874 2.34375 40 2.34375C73.7812 2.34375 75.0937 2.35938 75.7187 2.64062ZM77.625 56.5156C77.5781 60.125 77.5625 60.25 77.2031 60.8906C76.9844 61.2656 76.5469 61.75 76.2031 61.9844L75.5781 62.4219H40H4.42187L3.79687 61.9844C3.45312 61.75 3.01562 61.2656 2.79687 60.8906C2.43749 60.25 2.42187 60.125 2.37499 56.5156L2.32812 52.8125H40H77.6719L77.625 56.5156Z" fill="white"/>
<path d="M22.1094 7.82814C19.7031 8.18752 17.0937 9.12502 15.0781 10.3906C13.375 11.4375 13.1094 11.9531 13.7969 12.75C14.2969 13.3281 14.9219 13.3125 15.7969 12.7031C21.0156 9.12502 28.4844 9.12502 33.875 12.7188C35.3437 13.6875 36.6719 14.9375 37.7344 16.3281L38.6406 17.5L38.2187 18.4375C35.9375 23.5 35.8906 29.1406 38.0625 33.9063L38.6406 35.1563L38.0781 35.9844C37.25 37.1875 35.1094 39.2031 33.7187 40.125C30.6875 42.0938 26.7812 43.0469 23.3281 42.6719C21.1094 42.4375 19.5156 41.9688 17.5781 41.0156C12.2187 38.375 8.79687 33.2031 8.48437 27.2656C8.29687 23.5781 9.23437 20.1563 11.2656 17.1563C11.9531 16.1563 12.0469 15.4844 11.5625 15C11.2187 14.6563 10.625 14.5938 10.1562 14.8438C9.73437 15.0625 8.29687 17.4063 7.62499 18.9531C3.48437 28.5156 8.06249 39.75 17.7031 43.6875C25.3906 46.8125 33.9531 44.6406 39.3437 38.2031L40 37.4219L40.8125 38.3594C42.7187 40.5625 44.4219 41.875 46.9531 43.125C51.8281 45.5469 57.2344 45.75 62.2344 43.7031C71.8125 39.7969 76.375 28.9531 72.5156 19.3125C71.5156 16.7969 70.0937 14.7656 67.9062 12.7031C64.5781 9.56252 60.5469 7.89064 55.9375 7.70314C51.75 7.54689 48.0937 8.59377 44.5469 10.9688C43.4062 11.75 41.1875 13.8125 40.4219 14.8438L40 15.3906L39.5937 14.8438C38.8437 13.8438 36.4844 11.6563 35.375 10.9219C31.4687 8.31252 26.6094 7.17189 22.1094 7.82814ZM59.2969 10.5313C66.2031 12.3281 71.1406 18.3906 71.5156 25.5625C71.8594 32.0781 68.3125 38.0938 62.4219 41.0156C57.1875 43.625 51.1875 43.2656 46.2187 40.0781C44.6406 39.0625 42.2812 36.6406 41.2812 35C38.875 31.0781 38.1875 26.4063 39.3906 22.0156C39.8594 20.2656 41.2344 17.6094 42.4062 16.1406C44.6719 13.3438 47.9375 11.25 51.3281 10.4688C53.1719 10.0313 53.3281 10.0156 55.625 10.0781C57.2656 10.1094 58.0781 10.2188 59.2969 10.5313Z" fill="white"/>
<path d="M44.5625 20.3594C44.2344 20.7187 44.2188 20.8281 44.2188 24.9375C44.2344 29.4531 44.2812 29.8281 45.0625 30.8594C46.0938 32.2031 48.1562 33 49.7812 32.6719C50.2656 32.5781 50.9844 32.3437 51.3594 32.1562C52.25 31.7031 53.3281 30.5312 53.5625 29.7187C53.6875 29.3125 53.75 27.6875 53.75 24.8594C53.75 20.8281 53.7344 20.6094 53.4375 20.3125C53.0469 19.9219 52.3281 19.9062 51.8594 20.2969C51.4844 20.5937 51.4844 20.6094 51.4062 24.9219L51.3281 29.25L50.8281 29.6875C50.3438 30.125 49.4688 30.4687 48.8438 30.4687C48.2969 30.4687 47.1562 29.8125 46.8594 29.3125C46.5938 28.875 46.5625 28.4844 46.5625 24.7969V20.7656L46.1719 20.3906C45.6875 19.8906 45.0156 19.875 44.5625 20.3594Z" fill="white"/>
<path d="M56.9844 20.1719C56.5937 20.4062 56.3906 21.0156 56.5469 21.4687C56.625 21.6562 57.2969 22.6875 58.0469 23.75C58.7969 24.8125 59.4375 25.7656 59.4844 25.8906C59.5312 26 58.8125 27.1719 57.875 28.4687C56.9531 29.7812 56.125 31.0469 56.0312 31.2812C55.7187 32.125 56.5156 32.9531 57.4375 32.7187C57.7187 32.6406 58.2969 31.9531 59.4219 30.375C60.2812 29.1406 61.0469 28.125 61.0937 28.1406C61.1406 28.1406 61.8437 29.1094 62.6562 30.2812C63.4844 31.4531 64.3437 32.5156 64.5781 32.6562C64.9531 32.8594 65.0469 32.8594 65.4219 32.6562C66.0156 32.3281 66.2656 31.7812 66.0781 31.2812C65.9844 31.0625 65.2031 29.8594 64.3281 28.6094C63.4531 27.375 62.6875 26.2656 62.625 26.1719C62.5469 26.0625 63.0781 25.1719 63.9062 24C64.6719 22.9062 65.375 21.8906 65.4687 21.7187C66.0156 20.7031 64.9375 19.6094 63.9219 20.1406C63.7656 20.2344 63.1094 21.0781 62.4375 22.0156C61.7656 22.9687 61.1719 23.7812 61.1094 23.8281C61.0469 23.8594 60.4687 23.1406 59.8437 22.2344C59.2187 21.3281 58.5781 20.4531 58.4062 20.2812C58.0937 19.9687 57.4219 19.9219 56.9844 20.1719Z" fill="white"/>
<path d="M17.5625 20.3906L17.1719 20.7812L17.2188 25.125L17.2656 29.4531L17.7188 30.2812C18.5938 31.8437 20.1406 32.7187 22.0312 32.7187C23.0156 32.7344 23.3594 32.6562 24.1094 32.2812C25.2188 31.75 26.0156 30.9687 26.4688 30.0156C26.7656 29.3437 26.7969 28.9844 26.8438 25.0469L26.8906 20.7812L26.5 20.3906C26 19.8906 25.3281 19.875 24.875 20.3594C24.5625 20.6875 24.5469 20.875 24.5 24.875L24.4531 29.0312L24.0625 29.4687C22.9844 30.6406 21.375 30.7344 20.25 29.6875L19.6094 29.0781L19.5625 24.8906C19.5156 20.875 19.5 20.6875 19.1875 20.3594C18.7344 19.875 18.0625 19.8906 17.5625 20.3906Z" fill="white"/>
<path d="M30.4531 20.2969L30.0781 20.5938V26.3281V32.0625L30.5156 32.4375C31.0469 32.8906 31.3906 32.9063 31.9375 32.4844L32.3438 32.1719V26.3906C32.3438 20.8281 32.3281 20.6094 32.0312 20.3125C31.6406 19.9219 30.9219 19.9063 30.4531 20.2969Z" fill="white"/>
<path d="M36.8281 56.8438C36.4531 57.2656 36.4844 58.1719 36.8906 58.5312C37.1875 58.7969 37.4844 58.8281 40 58.8281C42.5156 58.8281 42.8125 58.7969 43.1094 58.5312C43.5312 58.1406 43.5625 57.1875 43.1562 56.8281C42.9062 56.5938 42.4531 56.5625 39.9687 56.5625C37.375 56.5625 37.0469 56.5938 36.8281 56.8438Z" fill="white"/>
</g>
<defs>
<clipPath id="clip0_10_87">
<rect width="80" height="80" fill="white"/>
</clipPath>
</defs>
</svg>
