<svg width="80" height="80" viewBox="0 0 80 80" fill="none" xmlns="http://www.w3.org/2000/svg">
<circle cx="40" cy="40" r="40" fill="#C362F9"/>
<path d="M25.3813 28.9936C27.8988 28.9936 29.9396 26.9528 29.9396 24.4353C29.9396 21.9178 27.8988 19.877 25.3813 19.877C22.8638 19.877 20.8229 21.9178 20.8229 24.4353C20.8229 26.9528 22.8638 28.9936 25.3813 28.9936Z" fill="white"/>
<path d="M34.2438 32.4478V57.7373H42.0959V45.2311C42.0959 41.9311 42.7167 38.7353 46.8084 38.7353C50.8438 38.7353 50.8938 42.5082 50.8938 45.4394V57.7394H58.75V43.8707C58.75 37.0582 57.2834 31.8228 49.3209 31.8228C45.4979 31.8228 42.9354 33.9207 41.8875 35.9061H41.7813V32.4478H34.2438ZM21.4479 32.4478H29.3125V57.7373H21.4479V32.4478Z" fill="white"/>
</svg>
