<svg width="80" height="80" viewBox="0 0 80 80" fill="none" xmlns="http://www.w3.org/2000/svg">
<circle cx="40" cy="40" r="40" fill="#C362F9"/>
<path d="M54.0209 26.271L51.3542 28.3543L40 36.7918L28.6459 28.271L25.9792 26.1876C25.351 25.6679 24.5841 25.344 23.7735 25.2558C22.963 25.1677 22.1444 25.3194 21.4192 25.692C20.694 26.0645 20.094 26.6417 19.6936 27.3519C19.2933 28.0622 19.11 28.8743 19.1667 29.6876V53.8334C19.1667 54.5849 19.4652 55.3056 19.9966 55.8369C20.5279 56.3683 21.2486 56.6668 22 56.6668H28.6459V40.5835L40 49.1043L51.3542 40.5835V56.6668H58C58.7515 56.6668 59.4721 56.3683 60.0035 55.8369C60.5348 55.3056 60.8334 54.5849 60.8334 53.8334V29.6876C60.8725 28.8813 60.6765 28.081 60.2693 27.3839C59.8621 26.6869 59.2611 26.1231 58.5395 25.7612C57.8179 25.3993 57.0067 25.2548 56.2045 25.3453C55.4023 25.4358 54.6437 25.7574 54.0209 26.271Z" fill="white"/>
</svg>
