<svg width="80" height="75" viewBox="0 0 80 75" fill="none" xmlns="http://www.w3.org/2000/svg">
<path d="M20.8989 0.282854C17.9315 1.12302 15.8043 3.62564 14.8033 7.43321C13.9989 10.5257 14.1597 15.7812 15.1965 20.8044C15.4647 22.1808 15.6613 23.3606 15.6256 23.4321C15.5719 23.5036 15.3217 23.6288 15.0535 23.7003C13.9452 23.9684 10.3343 25.47 8.74334 26.328C6.38373 27.5793 4.72127 28.7591 3.32695 30.1713C1.84325 31.7087 1.57512 32.0483 0.913707 33.3532C0.127169 34.8906 -0.0694661 35.8916 0.0199133 37.715C0.0914168 39.1629 0.16292 39.4668 0.86008 40.8611C2.73705 44.6508 7.49203 48.083 14.0167 50.3353C14.8033 50.6213 15.5004 50.8895 15.5719 50.9431C15.6434 51.0146 15.4826 52.1944 15.1965 53.553C14.4457 57.1818 14.2134 59.6665 14.3385 62.8127C14.4994 67.1923 15.4647 70.0167 17.5025 72.0545C19.7191 74.2711 22.5972 74.8968 26.3153 73.9494C29.9799 73.0198 33.9305 70.6423 38.3816 66.6918L40.044 65.2081L40.8842 66.0125C45.8716 70.8032 51.7527 74.0566 55.9178 74.3248C64.2301 74.861 67.6801 66.3521 64.6412 52.8022L64.2301 50.9967L66.4646 50.1566C73.5792 47.4752 78.0839 43.9715 79.5676 39.9673C80.1754 38.3406 80.1396 35.7307 79.4782 34.1934C77.7979 30.1713 73.168 26.6498 66.2858 24.1472L64.2122 23.3964L64.4625 22.4311C64.5876 21.8948 64.8915 20.3217 65.1418 18.9274C66.7327 9.45318 65.0166 3.01786 60.2616 0.765503C57.187 -0.700319 53.2007 -0.0567874 48.3563 2.66035C46.6045 3.64352 43.2795 6.14614 41.4205 7.8801L40.0261 9.14929L38.3816 7.68347C34.2165 4.00104 30.6592 1.76655 27.1555 0.640372C25.2428 0.0147162 22.4184 -0.128291 20.8989 0.282854ZM26.512 3.42901C28.4962 4.09042 30.8201 5.34173 33.0188 6.96843C35.003 8.43426 37.881 10.9369 37.881 11.205C37.881 11.3123 37.7023 11.5447 37.5056 11.7413C36.8085 12.3491 33.3048 16.5678 31.8211 18.5699L30.3553 20.5184L28.4426 20.7507C26.1545 21.001 22.2396 21.716 20.3269 22.1987C19.5761 22.3774 18.8432 22.5383 18.7181 22.5383C18.3963 22.5383 17.8243 20.1608 17.4131 17.0862C17.1808 15.4952 17.1271 14.1545 17.1986 11.9022C17.2701 9.25655 17.3416 8.68452 17.7349 7.43321C18.2354 5.93163 19.0399 4.60882 19.8621 3.96529C21.471 2.6961 23.777 2.51734 26.512 3.42901ZM59.064 3.30388C60.6549 4.03679 61.799 5.66349 62.4604 8.14824C62.8715 9.63194 62.9966 13.2965 62.7464 15.7634C62.514 17.9979 61.7275 22.1808 61.4951 22.4132C61.4057 22.5026 60.2616 22.3238 58.9567 22.0378C56.5792 21.5015 52.9325 20.8759 50.7874 20.6435L49.6612 20.5184L48.0882 18.4448C46.4078 16.2281 44.9241 14.4227 43.1008 12.3848L41.9746 11.1156L43.5477 9.7392C46.2291 7.37958 48.7674 5.60987 51.0198 4.48369C53.5939 3.2145 54.6486 2.91061 56.6507 2.89273C57.8841 2.87486 58.331 2.96424 59.064 3.30388ZM41.4026 14.7266C42.8863 16.4248 45.7285 19.9106 45.7464 20.0357C45.7464 20.0893 43.1365 20.1251 39.9546 20.1251H34.1807L35.2533 18.7129C36.594 16.9968 39.8653 13.2429 40.0083 13.2607C40.0619 13.2607 40.6875 13.9222 41.4026 14.7266ZM47.82 23.2176C48.5708 23.6109 52.6644 30.3143 54.9704 34.8906L56.1144 37.1966L54.9704 39.5025C53.4688 42.4878 51.431 46.0094 49.5719 48.8516C48.2133 50.9431 48.0524 51.1219 47.4089 51.2649C46.533 51.4436 33.7517 51.4436 32.697 51.2649C31.8926 51.1397 31.8747 51.104 30.3553 48.7622C28.5498 46.0094 26.1723 41.8622 24.8138 39.1093L23.8485 37.1787L25.0461 34.8191C26.6192 31.7087 28.4604 28.5267 30.3195 25.6666C31.1597 24.3974 31.8747 23.307 31.9284 23.2534C32.2859 22.878 47.1229 22.8422 47.82 23.2176ZM27.942 24.0935C26.941 25.613 24.5456 29.7244 23.5267 31.6372L22.3648 33.8538L22.0609 33.1566C20.7202 30.0283 19.2186 25.5772 19.4331 25.3806C19.7013 25.1303 26.7801 23.6645 27.942 23.6288C28.2638 23.6109 28.2638 23.6288 27.942 24.0935ZM54.6844 24.0578C57.5981 24.5762 60.4404 25.2018 60.6013 25.3806C60.7443 25.5057 59.5824 29.0094 58.4383 31.9053L57.6875 33.8359L56.9546 32.5309C55.5245 29.8674 53.8978 27.0609 52.8789 25.4163C52.289 24.5047 51.8242 23.7181 51.8242 23.6824C51.8242 23.5751 51.9672 23.593 54.6844 24.0578ZM68.7348 28.2407C71.4519 29.5457 73.3825 30.8506 74.8841 32.3701C78.495 36.0346 77.8873 39.9316 73.1859 43.5067C71.3983 44.8653 67.8768 46.6886 65.2133 47.6361L63.4793 48.2617L62.8179 46.2596C62.0313 43.8821 61.2269 41.737 60.1008 39.1271L59.2785 37.2144L60.4583 34.39C61.1018 32.8348 62.0492 30.3501 62.5497 28.8485L63.4793 26.1314L65.0166 26.6677C65.8747 26.9715 67.555 27.6866 68.7348 28.2407ZM16.7875 26.9537C17.3595 28.7949 18.7538 32.5488 19.6834 34.7297L20.7202 37.1966L19.6655 39.6455C18.5751 42.2018 17.145 46.0272 16.8054 47.3322C16.6802 47.8148 16.4836 48.1008 16.3227 48.1008C15.7864 48.1008 12.5509 46.7959 10.4773 45.7412C2.55829 41.7191 0.645569 36.8212 5.2218 32.2986C6.75912 30.7612 8.06406 29.8496 10.4952 28.6161C12.3543 27.6687 15.7686 26.3101 16.287 26.2923C16.4657 26.2923 16.6624 26.5246 16.7875 26.9537ZM26.1187 47.3143C26.941 48.6907 27.7633 50.0314 27.9599 50.2996L28.2817 50.818L27.6739 50.7107C27.3343 50.6571 26.2975 50.4783 25.3679 50.3353C23.1513 49.9599 19.594 49.1734 19.4152 49.0125C19.2007 48.8159 20.7023 44.4005 22.0609 41.2365L22.3648 40.5393L23.4909 42.6844C24.1166 43.8643 25.2964 45.9557 26.1187 47.3143ZM58.3489 42.2375C59.3857 44.8117 60.7622 48.8874 60.6192 49.0125C60.3331 49.2806 52.0566 50.8895 51.8778 50.7107C51.8421 50.675 52.289 49.8884 52.861 48.9768C54.166 46.9032 55.8105 44.0251 56.8295 42.0588C57.2406 41.2544 57.616 40.593 57.6339 40.593C57.6696 40.593 57.9914 41.3438 58.3489 42.2375ZM21.1671 52.3732C23.5088 52.8916 27.1913 53.5172 29.247 53.7496L30.3553 53.8747L31.6423 55.5908C33.3763 57.8789 34.8243 59.6665 36.4867 61.5435C37.2554 62.4015 37.881 63.1345 37.881 63.1881C37.881 63.3668 35.8789 65.1723 34.1628 66.5487C31.9462 68.3185 29.1218 69.9988 27.0661 70.7853C25.7791 71.268 25.1177 71.411 23.7591 71.4825C21.5782 71.5897 20.5951 71.2144 19.308 69.8022C17.7707 68.1218 17.145 65.7265 17.145 61.6329C17.145 58.1292 18.1103 51.8548 18.6466 51.8548C18.7538 51.8548 19.8979 52.0872 21.1671 52.3732ZM61.7811 52.8379C61.9062 53.3206 62.1744 54.7328 62.4067 55.9662C62.9251 58.9515 62.9788 64.1534 62.4961 66.0661C61.8705 68.5508 60.923 70.0345 59.3678 70.9283C58.4025 71.5004 56.2753 71.697 54.7201 71.3395C51.6812 70.6602 47.8379 68.3721 43.7979 64.8505L41.9746 63.2596L42.922 62.187C44.799 60.0598 46.5151 57.9862 48.0882 55.9484L49.6791 53.8569L50.7874 53.7317C52.6465 53.553 57.1512 52.7664 59.064 52.3195C61.4593 51.7475 61.4951 51.7475 61.7811 52.8379ZM45.7464 54.3395C45.7464 54.5004 42.3321 58.6119 41.1702 59.881L39.9546 61.2039L39.2575 60.4173C37.7559 58.7012 35.9326 56.5383 35.0745 55.4299L34.1628 54.268H39.9546C43.1365 54.268 45.7464 54.3038 45.7464 54.3395Z" fill="white"/>
<path d="M38.2564 28.8126C36.9157 29.0629 35.2533 29.9746 34.145 31.0292C28.9967 35.9272 31.6781 44.4183 38.7391 45.6338C40.9914 46.0092 43.6549 45.2763 45.4604 43.7926C48.7495 41.0576 49.4825 36.1418 47.1586 32.5129C45.3174 29.6349 41.6886 28.1334 38.2564 28.8126Z" fill="white"/>
</svg>
