<svg width="80" height="80" viewBox="0 0 80 80" fill="none" xmlns="http://www.w3.org/2000/svg">
<circle cx="40" cy="40" r="40" fill="#C362F9"/>
<path fill-rule="evenodd" clip-rule="evenodd" d="M53.3396 25.7355C51.607 23.9915 49.5456 22.6086 47.2747 21.667C45.0039 20.7254 42.5687 20.2438 40.1104 20.2501C29.8021 20.2501 21.4104 28.6396 21.4063 38.9521C21.4063 42.248 22.2667 45.4646 23.9021 48.3021L21.25 57.9917L31.1646 55.3896C33.9071 56.8826 36.9796 57.6654 40.1021 57.6667H40.1104C50.4167 57.6667 58.8083 49.2771 58.8125 38.9646C58.8196 36.5073 58.3396 34.073 57.4002 31.8023C56.4608 29.5316 55.0807 27.4696 53.3396 25.7355ZM40.1104 54.5105H40.1042C37.3198 54.5108 34.5867 53.7617 32.1917 52.3417L31.625 52.0042L25.7417 53.548L27.3104 47.8126L26.9417 47.2251C25.385 44.7468 24.5609 41.8788 24.5646 38.9521C24.5688 30.3813 31.5417 23.4084 40.1167 23.4084C42.1589 23.4039 44.1817 23.8044 46.068 24.5868C47.9544 25.3693 49.6668 26.5181 51.1062 27.9667C52.5534 29.4085 53.7004 31.1228 54.481 33.0105C55.2616 34.8982 55.6604 36.9219 55.6542 38.9646C55.65 47.5355 48.6771 54.5105 40.1104 54.5105ZM48.6375 42.8667C48.1687 42.6313 45.8729 41.5021 45.4437 41.3459C45.0167 41.1896 44.7062 41.1126 44.3937 41.5792C44.0812 42.0459 43.1854 43.098 42.9125 43.4105C42.6396 43.723 42.3667 43.7605 41.9 43.5271C41.4333 43.2938 39.9271 42.8001 38.1417 41.2084C36.7521 39.9688 35.8146 38.4396 35.5417 37.9709C35.2687 37.5021 35.5125 37.2501 35.7479 37.0167C35.9583 36.8084 36.2146 36.4709 36.4479 36.198C36.6812 35.9251 36.7583 35.7313 36.9146 35.4188C37.0708 35.1063 36.9937 34.8334 36.875 34.6001C36.7583 34.3646 35.8229 32.0646 35.4333 31.1292C35.0562 30.223 34.6708 30.3438 34.3833 30.3313C34.0856 30.3191 33.7876 30.3136 33.4896 30.3146C33.2526 30.3207 33.0195 30.3756 32.8047 30.476C32.59 30.5764 32.3983 30.72 32.2417 30.898C31.8125 31.3667 30.6063 32.4959 30.6063 34.7959C30.6063 37.0959 32.2812 39.3188 32.5146 39.6313C32.7479 39.9438 35.8104 44.6626 40.4979 46.6876C41.6146 47.1688 42.4854 47.4563 43.1625 47.673C44.2812 48.0292 45.3 47.9771 46.1062 47.8584C47.0042 47.7251 48.8708 46.7292 49.2604 45.6376C49.65 44.5459 49.65 43.6105 49.5333 43.4146C49.4167 43.2188 49.1021 43.1001 48.6375 42.8667Z" fill="white"/>
</svg>
