<svg width="160" height="145" viewBox="0 0 160 178" fill="none" xmlns="http://www.w3.org/2000/svg">
<path d="M0.959985 96.84C0.879985 96.92 0.799985 96.96 0.719985 96.96C0.479985 96.96 0.359985 96.6 0.359985 95.88C0.359985 95.4 0.479985 94.92 0.719985 94.44C1.03999 93.88 1.59999 93.56 2.39999 93.48C4.63999 93.32 6.75999 92.56 8.75999 91.2C10.76 89.84 12.52 88.24 14.04 86.4C15.56 84.48 16.64 82.68 17.28 81L28.32 53.4C29.84 49.64 31.56 46 33.48 42.48C35.48 38.96 38 36.08 41.04 33.84C44.16 31.6 48.08 30.48 52.8 30.48C54.64 30.48 56.48 30.72 58.32 31.2C60.24 31.6 61.84 32.28 63.12 33.24C64.4 34.2 65.04 35.56 65.04 37.32C65.04 37.56 65.04 37.8 65.04 38.04C65.04 38.28 65 38.52 64.92 38.76C64.68 40.04 63.96 41.32 62.76 42.6C61.64 43.88 60.76 45.48 60.12 47.4C60.04 47.96 59.68 48.24 59.04 48.24C58.48 48.24 58.36 47.88 58.68 47.16C59.32 46.2 59.8 45.08 60.12 43.8C60.52 42.44 60.72 41.08 60.72 39.72C60.72 37.64 60.24 35.8 59.28 34.2C58.32 32.6 56.68 31.8 54.36 31.8C52.28 31.8 50.16 32.4 48 33.6C45.84 34.8 43.96 36.88 42.36 39.84L20.16 80.76C18.08 84.6 16.16 87.36 14.4 89.04C12.72 90.64 11.32 91.64 10.2 92.04H39.12C42.96 92.04 46.52 91.92 49.8 91.68C53.08 91.44 55.08 90.84 55.8 89.88C56.6 88.76 57 87.56 57 86.28C57 84.28 55.92 82.8 53.76 81.84C53.52 81.68 53.4 81.52 53.4 81.36C53.4 81.2 53.48 81.04 53.64 80.88C53.88 80.72 54.16 80.72 54.48 80.88C55.2 81.2 56.04 81.92 57 83.04C58.04 84.08 59 85.24 59.88 86.52C60.76 87.72 61.32 88.68 61.56 89.4C61.8 90.12 61.92 90.84 61.92 91.56C61.92 94.84 59.08 96.48 53.4 96.48C48.92 96.48 44.12 96.32 39 96C33.88 95.68 28.8 95.32 23.76 94.92C18.8 94.52 14.12 94.24 9.71999 94.08C8.03999 93.92 6.35999 94.16 4.67999 94.8C3.07999 95.36 1.83999 96.04 0.959985 96.84Z" fill="white"/>
<path d="M79.3933 132.22C78.7889 132.22 78.2977 132.107 77.92 131.88C77.5423 131.729 77.3911 131.351 77.4667 130.747C77.4667 130.52 77.58 130.18 77.8067 129.727C78.0333 129.273 78.1844 128.933 78.26 128.707C78.6377 127.649 78.9777 126.591 79.28 125.533C79.5823 124.4 79.8844 123.342 80.1867 122.36C81.2444 118.204 82.2267 114.087 83.1333 110.007C84.04 105.851 84.7577 101.696 85.2867 97.54C85.5889 95.1223 85.9667 91.8734 86.42 87.7934C86.8733 83.6378 87.1 79.6334 87.1 75.78C87.1 74.269 87.0623 72.8711 86.9867 71.5867C86.9111 70.2267 86.7223 69.0178 86.42 67.96C83.9267 67.96 81.4333 67.96 78.94 67.96C76.4467 67.8844 73.9911 67.8467 71.5733 67.8467C70.44 67.8467 68.8533 67.9223 66.8133 68.0734C64.8489 68.2244 62.8089 68.5644 60.6933 69.0934C58.6533 69.6223 56.9533 70.4911 55.5933 71.7C54.2333 72.909 53.6289 74.5334 53.78 76.5734C53.8556 77.1778 54.0823 78.009 54.46 79.0667C54.8377 80.049 55.1023 80.6534 55.2533 80.88L54.0067 81.7867C53.5533 80.9556 52.9867 80.0111 52.3067 78.9534C51.6267 77.82 51.0223 76.7244 50.4933 75.6667C49.9644 74.609 49.6623 73.8156 49.5867 73.2867C49.5111 72.5311 49.5489 71.549 49.7 70.34C49.8511 69.1311 50.4556 68.0734 51.5133 67.1667C52.6467 66.1844 54.1956 65.5423 56.16 65.24C58.2 64.9378 60.2777 64.7867 62.3933 64.7867C64.4333 64.7867 66.3977 64.8623 68.2867 65.0134C70.1756 65.1644 71.7244 65.24 72.9333 65.24C72.9333 65.24 73.8023 65.24 75.54 65.24C77.2777 65.24 79.4689 65.24 82.1133 65.24C84.8333 65.1644 87.7044 65.1267 90.7267 65.1267C93.7489 65.1267 96.5067 65.1267 99 65.1267L96.62 68.0734H88.6867C89.82 70.189 90.5377 73.1356 90.84 76.9134C91.2177 80.6911 91.4067 84.3178 91.4067 87.7934C91.4067 89.229 91.4067 90.589 91.4067 91.8734C91.4067 93.1578 91.3689 94.2911 91.2933 95.2734C91.1423 98.8244 90.6511 103.093 89.82 108.08C88.9889 113.067 87.9311 117.789 86.6467 122.247C89.7444 117.864 93.5223 112.651 97.98 106.607C102.513 100.562 107.689 94.2911 113.507 87.7934C119.4 81.22 125.898 74.9867 133 69.0934C134.436 67.8844 136.324 66.5244 138.667 65.0134C141.009 63.5023 143.503 62.2178 146.147 61.16C148.791 60.0267 151.284 59.46 153.627 59.46C155.817 59.46 157.329 59.8378 158.16 60.5934C159.067 61.349 159.52 62.3311 159.52 63.54C159.52 64.9756 159.067 66.5623 158.16 68.3C157.329 70.0378 156.687 71.4734 156.233 72.6067C156.157 72.8334 155.817 72.9844 155.213 73.06C154.609 73.1356 154.344 73.0223 154.42 72.72C154.571 72.1156 154.723 71.3978 154.873 70.5667C155.1 69.66 155.213 68.7534 155.213 67.8467C155.213 66.6378 154.987 65.5423 154.533 64.56C154.08 63.5778 153.211 63.0111 151.927 62.86C151.7 62.7844 151.473 62.7467 151.247 62.7467C151.02 62.7467 150.793 62.7467 150.567 62.7467C148.376 62.7467 145.996 63.5023 143.427 65.0134C140.933 66.449 138.024 68.489 134.7 71.1334C128.353 76.1956 122.309 81.7867 116.567 87.9067C110.9 93.9511 105.46 100.298 100.247 106.947C97.5267 110.347 94.8823 113.784 92.3133 117.26C89.7444 120.736 87.3644 124.362 85.1733 128.14C85.0223 128.442 84.8711 128.782 84.72 129.16C84.6444 129.613 84.5311 129.953 84.38 130.18C84.2289 130.331 83.7756 130.558 83.02 130.86C82.2644 131.238 81.5089 131.54 80.7533 131.767C80.0733 132.069 79.62 132.22 79.3933 132.22Z" fill="white"/>
</svg>
